<svg xmlns="http://www.w3.org/2000/svg" viewBox="0 0 220 220"><rect width="220" height="220" rx="34" fill="#e8eadb"/><ellipse cx="110" cy="185" rx="79" ry="9" fill="#304f3b" opacity=".08"/><g fill="#294d42"><ellipse cx="112" cy="132" rx="52" ry="30" fill="#c4b29c"/><path d="M75 145v35m69-35v35" stroke="#9a8b76" stroke-width="12"/><path d="M81 83Q52 65 56 89l26 17m55-23q30-18 26 6l-28 17" fill="#b5a189"/><path d="M91 68 81 35m47 33 11-33" stroke="#8b806b" stroke-width="9"/><ellipse cx="110" cy="98" rx="33" ry="40" fill="#ded0b8"/><circle cx="95" cy="89" r="4"/><circle cx="125" cy="89" r="4"/><ellipse cx="110" cy="117" rx="13" ry="10" fill="#aa9381"/><path d="m100 136 10 17 10-17" fill="#ded0b8"/></g></svg>